<mxfile host="app.diagrams.net" modified="2021-04-07T18:09:11.448Z" agent="5.0 (X11)" etag="NCULyHR-8okGHwo1u-gc" version="14.5.4" type="github">
  <diagram id="Y_9sGmnjUwK3PNuPOUKg" name="Page-1">
    <mxGraphModel dx="1369" dy="776" grid="0" gridSize="10" guides="1" tooltips="1" connect="1" arrows="1" fold="1" page="1" pageScale="1" pageWidth="1100" pageHeight="1700" background="#ffffff" math="0" shadow="0">
      <root>
        <mxCell id="0" />
        <mxCell id="1" parent="0" />
        <mxCell id="aPo73RIebEHa1gepbamj-1" value="HOCSINH" style="swimlane;fontStyle=0;childLayout=stackLayout;horizontal=1;startSize=26;horizontalStack=0;resizeParent=1;resizeParentMax=0;resizeLast=0;collapsible=1;marginBottom=0;align=center;fontSize=14;" vertex="1" parent="1">
          <mxGeometry x="121" y="299" width="160" height="266" as="geometry" />
        </mxCell>
        <mxCell id="aPo73RIebEHa1gepbamj-2" value="idHocSInh" style="text;strokeColor=none;fillColor=none;spacingLeft=4;spacingRight=4;overflow=hidden;rotatable=0;points=[[0,0.5],[1,0.5]];portConstraint=eastwest;fontSize=12;fontStyle=5" vertex="1" parent="aPo73RIebEHa1gepbamj-1">
          <mxGeometry y="26" width="160" height="30" as="geometry" />
        </mxCell>
        <mxCell id="aPo73RIebEHa1gepbamj-3" value="Hoten" style="text;strokeColor=none;fillColor=none;spacingLeft=4;spacingRight=4;overflow=hidden;rotatable=0;points=[[0,0.5],[1,0.5]];portConstraint=eastwest;fontSize=12;" vertex="1" parent="aPo73RIebEHa1gepbamj-1">
          <mxGeometry y="56" width="160" height="30" as="geometry" />
        </mxCell>
        <mxCell id="aPo73RIebEHa1gepbamj-4" value="NgaySinh" style="text;strokeColor=none;fillColor=none;spacingLeft=4;spacingRight=4;overflow=hidden;rotatable=0;points=[[0,0.5],[1,0.5]];portConstraint=eastwest;fontSize=12;" vertex="1" parent="aPo73RIebEHa1gepbamj-1">
          <mxGeometry y="86" width="160" height="30" as="geometry" />
        </mxCell>
        <mxCell id="aPo73RIebEHa1gepbamj-5" value="GioiTInh" style="text;strokeColor=none;fillColor=none;spacingLeft=4;spacingRight=4;overflow=hidden;rotatable=0;points=[[0,0.5],[1,0.5]];portConstraint=eastwest;fontSize=12;" vertex="1" parent="aPo73RIebEHa1gepbamj-1">
          <mxGeometry y="116" width="160" height="30" as="geometry" />
        </mxCell>
        <mxCell id="aPo73RIebEHa1gepbamj-6" value="KhuyetTat" style="text;strokeColor=none;fillColor=none;spacingLeft=4;spacingRight=4;overflow=hidden;rotatable=0;points=[[0,0.5],[1,0.5]];portConstraint=eastwest;fontSize=12;" vertex="1" parent="aPo73RIebEHa1gepbamj-1">
          <mxGeometry y="146" width="160" height="30" as="geometry" />
        </mxCell>
        <mxCell id="aPo73RIebEHa1gepbamj-7" value="TPGiaDinh" style="text;strokeColor=none;fillColor=none;spacingLeft=4;spacingRight=4;overflow=hidden;rotatable=0;points=[[0,0.5],[1,0.5]];portConstraint=eastwest;fontSize=12;" vertex="1" parent="aPo73RIebEHa1gepbamj-1">
          <mxGeometry y="176" width="160" height="30" as="geometry" />
        </mxCell>
        <mxCell id="aPo73RIebEHa1gepbamj-8" value="DanToc" style="text;strokeColor=none;fillColor=none;spacingLeft=4;spacingRight=4;overflow=hidden;rotatable=0;points=[[0,0.5],[1,0.5]];portConstraint=eastwest;fontSize=12;" vertex="1" parent="aPo73RIebEHa1gepbamj-1">
          <mxGeometry y="206" width="160" height="30" as="geometry" />
        </mxCell>
        <mxCell id="aPo73RIebEHa1gepbamj-9" value="idLopHoc" style="text;strokeColor=none;fillColor=none;spacingLeft=4;spacingRight=4;overflow=hidden;rotatable=0;points=[[0,0.5],[1,0.5]];portConstraint=eastwest;fontSize=12;fontStyle=6" vertex="1" parent="aPo73RIebEHa1gepbamj-1">
          <mxGeometry y="236" width="160" height="30" as="geometry" />
        </mxCell>
        <mxCell id="aPo73RIebEHa1gepbamj-10" value="GIAOVIEN" style="swimlane;fontStyle=0;childLayout=stackLayout;horizontal=1;startSize=26;horizontalStack=0;resizeParent=1;resizeParentMax=0;resizeLast=0;collapsible=1;marginBottom=0;align=center;fontSize=14;" vertex="1" parent="1">
          <mxGeometry x="824" y="296" width="160" height="296" as="geometry" />
        </mxCell>
        <mxCell id="aPo73RIebEHa1gepbamj-11" value="idGiaoVien" style="text;strokeColor=none;fillColor=none;spacingLeft=4;spacingRight=4;overflow=hidden;rotatable=0;points=[[0,0.5],[1,0.5]];portConstraint=eastwest;fontSize=12;fontStyle=5" vertex="1" parent="aPo73RIebEHa1gepbamj-10">
          <mxGeometry y="26" width="160" height="30" as="geometry" />
        </mxCell>
        <mxCell id="aPo73RIebEHa1gepbamj-12" value="HoTen" style="text;strokeColor=none;fillColor=none;spacingLeft=4;spacingRight=4;overflow=hidden;rotatable=0;points=[[0,0.5],[1,0.5]];portConstraint=eastwest;fontSize=12;" vertex="1" parent="aPo73RIebEHa1gepbamj-10">
          <mxGeometry y="56" width="160" height="30" as="geometry" />
        </mxCell>
        <mxCell id="aPo73RIebEHa1gepbamj-13" value="NgaySinh" style="text;strokeColor=none;fillColor=none;spacingLeft=4;spacingRight=4;overflow=hidden;rotatable=0;points=[[0,0.5],[1,0.5]];portConstraint=eastwest;fontSize=12;" vertex="1" parent="aPo73RIebEHa1gepbamj-10">
          <mxGeometry y="86" width="160" height="30" as="geometry" />
        </mxCell>
        <mxCell id="aPo73RIebEHa1gepbamj-14" value="GioiTinh" style="text;strokeColor=none;fillColor=none;spacingLeft=4;spacingRight=4;overflow=hidden;rotatable=0;points=[[0,0.5],[1,0.5]];portConstraint=eastwest;fontSize=12;" vertex="1" parent="aPo73RIebEHa1gepbamj-10">
          <mxGeometry y="116" width="160" height="30" as="geometry" />
        </mxCell>
        <mxCell id="aPo73RIebEHa1gepbamj-15" value="DiaCHi" style="text;strokeColor=none;fillColor=none;spacingLeft=4;spacingRight=4;overflow=hidden;rotatable=0;points=[[0,0.5],[1,0.5]];portConstraint=eastwest;fontSize=12;" vertex="1" parent="aPo73RIebEHa1gepbamj-10">
          <mxGeometry y="146" width="160" height="30" as="geometry" />
        </mxCell>
        <mxCell id="aPo73RIebEHa1gepbamj-16" value="SDT" style="text;strokeColor=none;fillColor=none;spacingLeft=4;spacingRight=4;overflow=hidden;rotatable=0;points=[[0,0.5],[1,0.5]];portConstraint=eastwest;fontSize=12;" vertex="1" parent="aPo73RIebEHa1gepbamj-10">
          <mxGeometry y="176" width="160" height="30" as="geometry" />
        </mxCell>
        <mxCell id="aPo73RIebEHa1gepbamj-17" value="Bangcap" style="text;strokeColor=none;fillColor=none;spacingLeft=4;spacingRight=4;overflow=hidden;rotatable=0;points=[[0,0.5],[1,0.5]];portConstraint=eastwest;fontSize=12;" vertex="1" parent="aPo73RIebEHa1gepbamj-10">
          <mxGeometry y="206" width="160" height="30" as="geometry" />
        </mxCell>
        <mxCell id="aPo73RIebEHa1gepbamj-18" value="TrinhDo" style="text;strokeColor=none;fillColor=none;spacingLeft=4;spacingRight=4;overflow=hidden;rotatable=0;points=[[0,0.5],[1,0.5]];portConstraint=eastwest;fontSize=12;" vertex="1" parent="aPo73RIebEHa1gepbamj-10">
          <mxGeometry y="236" width="160" height="30" as="geometry" />
        </mxCell>
        <mxCell id="aPo73RIebEHa1gepbamj-19" value="TruongTotNghiep" style="text;strokeColor=none;fillColor=none;spacingLeft=4;spacingRight=4;overflow=hidden;rotatable=0;points=[[0,0.5],[1,0.5]];portConstraint=eastwest;fontSize=12;" vertex="1" parent="aPo73RIebEHa1gepbamj-10">
          <mxGeometry y="266" width="160" height="30" as="geometry" />
        </mxCell>
        <mxCell id="aPo73RIebEHa1gepbamj-20" value="LOPHOC" style="swimlane;fontStyle=0;childLayout=stackLayout;horizontal=1;startSize=26;horizontalStack=0;resizeParent=1;resizeParentMax=0;resizeLast=0;collapsible=1;marginBottom=0;align=center;fontSize=14;" vertex="1" parent="1">
          <mxGeometry x="487" y="286" width="160" height="116" as="geometry" />
        </mxCell>
        <mxCell id="aPo73RIebEHa1gepbamj-21" value="idLopHoc" style="text;strokeColor=none;fillColor=none;spacingLeft=4;spacingRight=4;overflow=hidden;rotatable=0;points=[[0,0.5],[1,0.5]];portConstraint=eastwest;fontSize=12;fontStyle=5" vertex="1" parent="aPo73RIebEHa1gepbamj-20">
          <mxGeometry y="26" width="160" height="30" as="geometry" />
        </mxCell>
        <mxCell id="aPo73RIebEHa1gepbamj-22" value="TenLopHoc" style="text;strokeColor=none;fillColor=none;spacingLeft=4;spacingRight=4;overflow=hidden;rotatable=0;points=[[0,0.5],[1,0.5]];portConstraint=eastwest;fontSize=12;" vertex="1" parent="aPo73RIebEHa1gepbamj-20">
          <mxGeometry y="56" width="160" height="30" as="geometry" />
        </mxCell>
        <mxCell id="aPo73RIebEHa1gepbamj-23" value="idGVChuNhiem" style="text;strokeColor=none;fillColor=none;spacingLeft=4;spacingRight=4;overflow=hidden;rotatable=0;points=[[0,0.5],[1,0.5]];portConstraint=eastwest;fontSize=12;fontStyle=4" vertex="1" parent="aPo73RIebEHa1gepbamj-20">
          <mxGeometry y="86" width="160" height="30" as="geometry" />
        </mxCell>
        <mxCell id="aPo73RIebEHa1gepbamj-24" value="MONHOC" style="swimlane;fontStyle=0;childLayout=stackLayout;horizontal=1;startSize=26;horizontalStack=0;resizeParent=1;resizeParentMax=0;resizeLast=0;collapsible=1;marginBottom=0;align=center;fontSize=14;" vertex="1" parent="1">
          <mxGeometry x="500" y="809" width="160" height="86" as="geometry" />
        </mxCell>
        <mxCell id="aPo73RIebEHa1gepbamj-25" value="Mã môn học" style="text;strokeColor=none;fillColor=none;spacingLeft=4;spacingRight=4;overflow=hidden;rotatable=0;points=[[0,0.5],[1,0.5]];portConstraint=eastwest;fontSize=12;fontStyle=5" vertex="1" parent="aPo73RIebEHa1gepbamj-24">
          <mxGeometry y="26" width="160" height="30" as="geometry" />
        </mxCell>
        <mxCell id="aPo73RIebEHa1gepbamj-26" value="Tên môn học" style="text;strokeColor=none;fillColor=none;spacingLeft=4;spacingRight=4;overflow=hidden;rotatable=0;points=[[0,0.5],[1,0.5]];portConstraint=eastwest;fontSize=12;" vertex="1" parent="aPo73RIebEHa1gepbamj-24">
          <mxGeometry y="56" width="160" height="30" as="geometry" />
        </mxCell>
        <mxCell id="aPo73RIebEHa1gepbamj-27" value="LICHTHI" style="swimlane;fontStyle=0;childLayout=stackLayout;horizontal=1;startSize=26;horizontalStack=0;resizeParent=1;resizeParentMax=0;resizeLast=0;collapsible=1;marginBottom=0;align=center;fontSize=14;" vertex="1" parent="1">
          <mxGeometry x="497" y="581" width="160" height="146" as="geometry" />
        </mxCell>
        <mxCell id="aPo73RIebEHa1gepbamj-28" value="idLichThi" style="text;strokeColor=none;fillColor=none;spacingLeft=4;spacingRight=4;overflow=hidden;rotatable=0;points=[[0,0.5],[1,0.5]];portConstraint=eastwest;fontSize=12;fontStyle=5" vertex="1" parent="aPo73RIebEHa1gepbamj-27">
          <mxGeometry y="26" width="160" height="30" as="geometry" />
        </mxCell>
        <mxCell id="aPo73RIebEHa1gepbamj-29" value="DiaĐiemThi" style="text;strokeColor=none;fillColor=none;spacingLeft=4;spacingRight=4;overflow=hidden;rotatable=0;points=[[0,0.5],[1,0.5]];portConstraint=eastwest;fontSize=12;" vertex="1" parent="aPo73RIebEHa1gepbamj-27">
          <mxGeometry y="56" width="160" height="30" as="geometry" />
        </mxCell>
        <mxCell id="aPo73RIebEHa1gepbamj-30" value="ThoiGian" style="text;strokeColor=none;fillColor=none;spacingLeft=4;spacingRight=4;overflow=hidden;rotatable=0;points=[[0,0.5],[1,0.5]];portConstraint=eastwest;fontSize=12;" vertex="1" parent="aPo73RIebEHa1gepbamj-27">
          <mxGeometry y="86" width="160" height="30" as="geometry" />
        </mxCell>
        <mxCell id="aPo73RIebEHa1gepbamj-31" value="idMonHoc" style="text;strokeColor=none;fillColor=none;spacingLeft=4;spacingRight=4;overflow=hidden;rotatable=0;points=[[0,0.5],[1,0.5]];portConstraint=eastwest;fontSize=12;fontStyle=6" vertex="1" parent="aPo73RIebEHa1gepbamj-27">
          <mxGeometry y="116" width="160" height="30" as="geometry" />
        </mxCell>
        <mxCell id="aPo73RIebEHa1gepbamj-32" value="CT_COITHI" style="swimlane;fontStyle=0;childLayout=stackLayout;horizontal=1;startSize=26;horizontalStack=0;resizeParent=1;resizeParentMax=0;resizeLast=0;collapsible=1;marginBottom=0;align=center;fontSize=14;" vertex="1" parent="1">
          <mxGeometry x="576" y="447" width="160" height="86" as="geometry" />
        </mxCell>
        <mxCell id="aPo73RIebEHa1gepbamj-33" value="idGiaoVien" style="text;strokeColor=none;fillColor=none;spacingLeft=4;spacingRight=4;overflow=hidden;rotatable=0;points=[[0,0.5],[1,0.5]];portConstraint=eastwest;fontSize=12;fontStyle=5" vertex="1" parent="aPo73RIebEHa1gepbamj-32">
          <mxGeometry y="26" width="160" height="30" as="geometry" />
        </mxCell>
        <mxCell id="aPo73RIebEHa1gepbamj-34" value="idLichThi" style="text;strokeColor=none;fillColor=none;spacingLeft=4;spacingRight=4;overflow=hidden;rotatable=0;points=[[0,0.5],[1,0.5]];portConstraint=eastwest;fontSize=12;fontStyle=5" vertex="1" parent="aPo73RIebEHa1gepbamj-32">
          <mxGeometry y="56" width="160" height="30" as="geometry" />
        </mxCell>
        <mxCell id="aPo73RIebEHa1gepbamj-35" value="CT_THI" style="swimlane;fontStyle=0;childLayout=stackLayout;horizontal=1;startSize=26;horizontalStack=0;resizeParent=1;resizeParentMax=0;resizeLast=0;collapsible=1;marginBottom=0;align=center;fontSize=14;" vertex="1" parent="1">
          <mxGeometry x="401" y="447" width="160" height="86" as="geometry" />
        </mxCell>
        <mxCell id="aPo73RIebEHa1gepbamj-36" value="idHocSinh" style="text;strokeColor=none;fillColor=none;spacingLeft=4;spacingRight=4;overflow=hidden;rotatable=0;points=[[0,0.5],[1,0.5]];portConstraint=eastwest;fontSize=12;fontStyle=5" vertex="1" parent="aPo73RIebEHa1gepbamj-35">
          <mxGeometry y="26" width="160" height="30" as="geometry" />
        </mxCell>
        <mxCell id="aPo73RIebEHa1gepbamj-37" value="idLichThi" style="text;strokeColor=none;fillColor=none;spacingLeft=4;spacingRight=4;overflow=hidden;rotatable=0;points=[[0,0.5],[1,0.5]];portConstraint=eastwest;fontSize=12;fontStyle=5" vertex="1" parent="aPo73RIebEHa1gepbamj-35">
          <mxGeometry y="56" width="160" height="30" as="geometry" />
        </mxCell>
        <mxCell id="aPo73RIebEHa1gepbamj-38" value="DIEM" style="swimlane;fontStyle=0;childLayout=stackLayout;horizontal=1;startSize=26;horizontalStack=0;resizeParent=1;resizeParentMax=0;resizeLast=0;collapsible=1;marginBottom=0;align=center;fontSize=14;" vertex="1" parent="1">
          <mxGeometry x="116" y="809" width="160" height="176" as="geometry" />
        </mxCell>
        <mxCell id="aPo73RIebEHa1gepbamj-39" value="idPhieuDiem" style="text;strokeColor=none;fillColor=none;spacingLeft=4;spacingRight=4;overflow=hidden;rotatable=0;points=[[0,0.5],[1,0.5]];portConstraint=eastwest;fontSize=12;fontStyle=5" vertex="1" parent="aPo73RIebEHa1gepbamj-38">
          <mxGeometry y="26" width="160" height="30" as="geometry" />
        </mxCell>
        <mxCell id="aPo73RIebEHa1gepbamj-40" value="HocKi" style="text;strokeColor=none;fillColor=none;spacingLeft=4;spacingRight=4;overflow=hidden;rotatable=0;points=[[0,0.5],[1,0.5]];portConstraint=eastwest;fontSize=12;" vertex="1" parent="aPo73RIebEHa1gepbamj-38">
          <mxGeometry y="56" width="160" height="30" as="geometry" />
        </mxCell>
        <mxCell id="aPo73RIebEHa1gepbamj-41" value="NamHoc" style="text;strokeColor=none;fillColor=none;spacingLeft=4;spacingRight=4;overflow=hidden;rotatable=0;points=[[0,0.5],[1,0.5]];portConstraint=eastwest;fontSize=12;" vertex="1" parent="aPo73RIebEHa1gepbamj-38">
          <mxGeometry y="86" width="160" height="30" as="geometry" />
        </mxCell>
        <mxCell id="aPo73RIebEHa1gepbamj-42" value="idMonHoc" style="text;strokeColor=none;fillColor=none;spacingLeft=4;spacingRight=4;overflow=hidden;rotatable=0;points=[[0,0.5],[1,0.5]];portConstraint=eastwest;fontSize=12;fontStyle=6" vertex="1" parent="aPo73RIebEHa1gepbamj-38">
          <mxGeometry y="116" width="160" height="30" as="geometry" />
        </mxCell>
        <mxCell id="aPo73RIebEHa1gepbamj-43" value="idGVCham" style="text;strokeColor=none;fillColor=none;spacingLeft=4;spacingRight=4;overflow=hidden;rotatable=0;points=[[0,0.5],[1,0.5]];portConstraint=eastwest;fontSize=12;fontStyle=6" vertex="1" parent="aPo73RIebEHa1gepbamj-38">
          <mxGeometry y="146" width="160" height="30" as="geometry" />
        </mxCell>
        <mxCell id="aPo73RIebEHa1gepbamj-44" value="CT_DIEM" style="swimlane;fontStyle=0;childLayout=stackLayout;horizontal=1;startSize=26;horizontalStack=0;resizeParent=1;resizeParentMax=0;resizeLast=0;collapsible=1;marginBottom=0;align=center;fontSize=14;" vertex="1" parent="1">
          <mxGeometry x="116" y="619" width="160" height="146" as="geometry" />
        </mxCell>
        <mxCell id="aPo73RIebEHa1gepbamj-45" value="idHocSinh" style="text;strokeColor=none;fillColor=none;spacingLeft=4;spacingRight=4;overflow=hidden;rotatable=0;points=[[0,0.5],[1,0.5]];portConstraint=eastwest;fontSize=12;fontStyle=5" vertex="1" parent="aPo73RIebEHa1gepbamj-44">
          <mxGeometry y="26" width="160" height="30" as="geometry" />
        </mxCell>
        <mxCell id="aPo73RIebEHa1gepbamj-46" value="idPhieuDiem" style="text;strokeColor=none;fillColor=none;spacingLeft=4;spacingRight=4;overflow=hidden;rotatable=0;points=[[0,0.5],[1,0.5]];portConstraint=eastwest;fontSize=12;fontStyle=5" vertex="1" parent="aPo73RIebEHa1gepbamj-44">
          <mxGeometry y="56" width="160" height="30" as="geometry" />
        </mxCell>
        <mxCell id="aPo73RIebEHa1gepbamj-47" value="Diem" style="text;strokeColor=none;fillColor=none;spacingLeft=4;spacingRight=4;overflow=hidden;rotatable=0;points=[[0,0.5],[1,0.5]];portConstraint=eastwest;fontSize=12;" vertex="1" parent="aPo73RIebEHa1gepbamj-44">
          <mxGeometry y="86" width="160" height="30" as="geometry" />
        </mxCell>
        <mxCell id="aPo73RIebEHa1gepbamj-48" value="SoLanThi" style="text;strokeColor=none;fillColor=none;spacingLeft=4;spacingRight=4;overflow=hidden;rotatable=0;points=[[0,0.5],[1,0.5]];portConstraint=eastwest;fontSize=12;" vertex="1" parent="aPo73RIebEHa1gepbamj-44">
          <mxGeometry y="116" width="160" height="30" as="geometry" />
        </mxCell>
        <mxCell id="aPo73RIebEHa1gepbamj-49" value="KQ_DANHGIA" style="swimlane;fontStyle=0;childLayout=stackLayout;horizontal=1;startSize=26;horizontalStack=0;resizeParent=1;resizeParentMax=0;resizeLast=0;collapsible=1;marginBottom=0;align=center;fontSize=14;" vertex="1" parent="1">
          <mxGeometry x="472" y="73" width="160" height="146" as="geometry" />
        </mxCell>
        <mxCell id="aPo73RIebEHa1gepbamj-50" value="idPhieuDanhGia" style="text;strokeColor=none;fillColor=none;spacingLeft=4;spacingRight=4;overflow=hidden;rotatable=0;points=[[0,0.5],[1,0.5]];portConstraint=eastwest;fontSize=12;fontStyle=5" vertex="1" parent="aPo73RIebEHa1gepbamj-49">
          <mxGeometry y="26" width="160" height="30" as="geometry" />
        </mxCell>
        <mxCell id="aPo73RIebEHa1gepbamj-51" value="NamHoc" style="text;strokeColor=none;fillColor=none;spacingLeft=4;spacingRight=4;overflow=hidden;rotatable=0;points=[[0,0.5],[1,0.5]];portConstraint=eastwest;fontSize=12;" vertex="1" parent="aPo73RIebEHa1gepbamj-49">
          <mxGeometry y="56" width="160" height="30" as="geometry" />
        </mxCell>
        <mxCell id="aPo73RIebEHa1gepbamj-52" value="HocKi" style="text;strokeColor=none;fillColor=none;spacingLeft=4;spacingRight=4;overflow=hidden;rotatable=0;points=[[0,0.5],[1,0.5]];portConstraint=eastwest;fontSize=12;" vertex="1" parent="aPo73RIebEHa1gepbamj-49">
          <mxGeometry y="86" width="160" height="30" as="geometry" />
        </mxCell>
        <mxCell id="aPo73RIebEHa1gepbamj-53" value="idGVDanhGia" style="text;strokeColor=none;fillColor=none;spacingLeft=4;spacingRight=4;overflow=hidden;rotatable=0;points=[[0,0.5],[1,0.5]];portConstraint=eastwest;fontSize=12;fontStyle=6" vertex="1" parent="aPo73RIebEHa1gepbamj-49">
          <mxGeometry y="116" width="160" height="30" as="geometry" />
        </mxCell>
        <mxCell id="aPo73RIebEHa1gepbamj-54" value="CT_DANHGIA" style="swimlane;fontStyle=0;childLayout=stackLayout;horizontal=1;startSize=26;horizontalStack=0;resizeParent=1;resizeParentMax=0;resizeLast=0;collapsible=1;marginBottom=0;align=center;fontSize=14;" vertex="1" parent="1">
          <mxGeometry x="121" y="61" width="160" height="146" as="geometry" />
        </mxCell>
        <mxCell id="aPo73RIebEHa1gepbamj-55" value="idHocSinh" style="text;strokeColor=none;fillColor=none;spacingLeft=4;spacingRight=4;overflow=hidden;rotatable=0;points=[[0,0.5],[1,0.5]];portConstraint=eastwest;fontSize=12;fontStyle=5" vertex="1" parent="aPo73RIebEHa1gepbamj-54">
          <mxGeometry y="26" width="160" height="30" as="geometry" />
        </mxCell>
        <mxCell id="aPo73RIebEHa1gepbamj-56" value="idPhieuDanhGia" style="text;strokeColor=none;fillColor=none;spacingLeft=4;spacingRight=4;overflow=hidden;rotatable=0;points=[[0,0.5],[1,0.5]];portConstraint=eastwest;fontSize=12;fontStyle=5" vertex="1" parent="aPo73RIebEHa1gepbamj-54">
          <mxGeometry y="56" width="160" height="30" as="geometry" />
        </mxCell>
        <mxCell id="aPo73RIebEHa1gepbamj-57" value="NangLuc" style="text;strokeColor=none;fillColor=none;spacingLeft=4;spacingRight=4;overflow=hidden;rotatable=0;points=[[0,0.5],[1,0.5]];portConstraint=eastwest;fontSize=12;" vertex="1" parent="aPo73RIebEHa1gepbamj-54">
          <mxGeometry y="86" width="160" height="30" as="geometry" />
        </mxCell>
        <mxCell id="aPo73RIebEHa1gepbamj-58" value="PhamChat" style="text;strokeColor=none;fillColor=none;spacingLeft=4;spacingRight=4;overflow=hidden;rotatable=0;points=[[0,0.5],[1,0.5]];portConstraint=eastwest;fontSize=12;" vertex="1" parent="aPo73RIebEHa1gepbamj-54">
          <mxGeometry y="116" width="160" height="30" as="geometry" />
        </mxCell>
        <mxCell id="aPo73RIebEHa1gepbamj-59" value="" style="fontSize=12;html=1;endArrow=ERmany;exitX=0.5;exitY=0;exitDx=0;exitDy=0;entryX=1;entryY=0.5;entryDx=0;entryDy=0;" edge="1" parent="1" source="aPo73RIebEHa1gepbamj-10" target="aPo73RIebEHa1gepbamj-49">
          <mxGeometry width="100" height="100" relative="1" as="geometry">
            <mxPoint x="972" y="273" as="sourcePoint" />
            <mxPoint x="734.04" y="155" as="targetPoint" />
            <Array as="points">
              <mxPoint x="904" y="146" />
            </Array>
          </mxGeometry>
        </mxCell>
        <mxCell id="aPo73RIebEHa1gepbamj-60" value="" style="fontSize=12;html=1;endArrow=ERmany;exitX=0;exitY=0.5;exitDx=0;exitDy=0;entryX=1.006;entryY=-0.133;entryDx=0;entryDy=0;entryPerimeter=0;" edge="1" parent="1" source="aPo73RIebEHa1gepbamj-51" target="aPo73RIebEHa1gepbamj-57">
          <mxGeometry width="100" height="100" relative="1" as="geometry">
            <mxPoint x="508" y="693" as="sourcePoint" />
            <mxPoint x="270.03999999999996" y="575" as="targetPoint" />
            <Array as="points" />
          </mxGeometry>
        </mxCell>
        <mxCell id="aPo73RIebEHa1gepbamj-61" value="" style="fontSize=12;html=1;endArrow=ERmany;exitX=0.5;exitY=0;exitDx=0;exitDy=0;entryX=0.5;entryY=1;entryDx=0;entryDy=0;" edge="1" parent="1" source="aPo73RIebEHa1gepbamj-1" target="aPo73RIebEHa1gepbamj-54">
          <mxGeometry width="100" height="100" relative="1" as="geometry">
            <mxPoint x="482" y="154" as="sourcePoint" />
            <mxPoint x="284.96000000000004" y="155.01" as="targetPoint" />
            <Array as="points" />
          </mxGeometry>
        </mxCell>
        <mxCell id="aPo73RIebEHa1gepbamj-62" value="" style="fontSize=12;html=1;endArrow=ERmany;exitX=0.463;exitY=1.067;exitDx=0;exitDy=0;entryX=0.5;entryY=0;entryDx=0;entryDy=0;exitPerimeter=0;" edge="1" parent="1" source="aPo73RIebEHa1gepbamj-8" target="aPo73RIebEHa1gepbamj-44">
          <mxGeometry width="100" height="100" relative="1" as="geometry">
            <mxPoint x="482" y="154" as="sourcePoint" />
            <mxPoint x="291.96000000000004" y="153.01" as="targetPoint" />
            <Array as="points" />
          </mxGeometry>
        </mxCell>
        <mxCell id="aPo73RIebEHa1gepbamj-63" value="" style="fontSize=12;html=1;endArrow=ERmany;exitX=0.5;exitY=0;exitDx=0;exitDy=0;entryX=0.488;entryY=1;entryDx=0;entryDy=0;entryPerimeter=0;" edge="1" parent="1" source="aPo73RIebEHa1gepbamj-38" target="aPo73RIebEHa1gepbamj-48">
          <mxGeometry width="100" height="100" relative="1" as="geometry">
            <mxPoint x="203.96000000000004" y="578" as="sourcePoint" />
            <mxPoint x="184" y="625" as="targetPoint" />
            <Array as="points" />
          </mxGeometry>
        </mxCell>
        <mxCell id="aPo73RIebEHa1gepbamj-64" value="" style="fontSize=12;html=1;endArrow=ERmany;exitX=0.644;exitY=1.033;exitDx=0;exitDy=0;entryX=1;entryY=0.5;entryDx=0;entryDy=0;exitPerimeter=0;" edge="1" parent="1" source="aPo73RIebEHa1gepbamj-19" target="aPo73RIebEHa1gepbamj-42">
          <mxGeometry width="100" height="100" relative="1" as="geometry">
            <mxPoint x="206" y="819" as="sourcePoint" />
            <mxPoint x="204.07999999999993" y="775" as="targetPoint" />
            <Array as="points">
              <mxPoint x="927" y="940" />
            </Array>
          </mxGeometry>
        </mxCell>
        <mxCell id="aPo73RIebEHa1gepbamj-65" value="" style="fontSize=12;html=1;endArrow=ERmany;exitX=0;exitY=0.5;exitDx=0;exitDy=0;entryX=1;entryY=0.5;entryDx=0;entryDy=0;" edge="1" parent="1" source="aPo73RIebEHa1gepbamj-25" target="aPo73RIebEHa1gepbamj-39">
          <mxGeometry width="100" height="100" relative="1" as="geometry">
            <mxPoint x="206" y="819" as="sourcePoint" />
            <mxPoint x="204.07999999999993" y="775" as="targetPoint" />
            <Array as="points" />
          </mxGeometry>
        </mxCell>
        <mxCell id="aPo73RIebEHa1gepbamj-66" value="" style="fontSize=12;html=1;endArrow=ERmany;exitX=0.5;exitY=0;exitDx=0;exitDy=0;entryX=0.488;entryY=1.033;entryDx=0;entryDy=0;entryPerimeter=0;" edge="1" parent="1" source="aPo73RIebEHa1gepbamj-24" target="aPo73RIebEHa1gepbamj-30">
          <mxGeometry width="100" height="100" relative="1" as="geometry">
            <mxPoint x="505" y="980" as="sourcePoint" />
            <mxPoint x="286" y="980" as="targetPoint" />
            <Array as="points" />
          </mxGeometry>
        </mxCell>
        <mxCell id="aPo73RIebEHa1gepbamj-67" value="" style="fontSize=12;html=1;endArrow=ERmany;exitX=0;exitY=0.2;exitDx=0;exitDy=0;entryX=1;entryY=0.5;entryDx=0;entryDy=0;exitPerimeter=0;" edge="1" parent="1" source="aPo73RIebEHa1gepbamj-12" target="aPo73RIebEHa1gepbamj-22">
          <mxGeometry width="100" height="100" relative="1" as="geometry">
            <mxPoint x="205.07999999999993" y="577.01" as="sourcePoint" />
            <mxPoint x="206" y="629" as="targetPoint" />
            <Array as="points" />
          </mxGeometry>
        </mxCell>
        <mxCell id="aPo73RIebEHa1gepbamj-68" value="" style="fontSize=12;html=1;endArrow=ERmany;exitX=0;exitY=0.5;exitDx=0;exitDy=0;entryX=1.006;entryY=0.1;entryDx=0;entryDy=0;entryPerimeter=0;" edge="1" parent="1" source="aPo73RIebEHa1gepbamj-22" target="aPo73RIebEHa1gepbamj-3">
          <mxGeometry width="100" height="100" relative="1" as="geometry">
            <mxPoint x="834" y="368" as="sourcePoint" />
            <mxPoint x="654" y="366" as="targetPoint" />
            <Array as="points" />
          </mxGeometry>
        </mxCell>
        <mxCell id="aPo73RIebEHa1gepbamj-69" value="" style="fontSize=12;html=1;endArrow=ERmany;entryX=0;entryY=0.5;entryDx=0;entryDy=0;" edge="1" parent="1" target="aPo73RIebEHa1gepbamj-36">
          <mxGeometry width="100" height="100" relative="1" as="geometry">
            <mxPoint x="287" y="488" as="sourcePoint" />
            <mxPoint x="291.96000000000004" y="368" as="targetPoint" />
            <Array as="points" />
          </mxGeometry>
        </mxCell>
        <mxCell id="aPo73RIebEHa1gepbamj-70" value="" style="fontSize=12;html=1;endArrow=ERmany;exitX=0.044;exitY=0.009;exitDx=0;exitDy=0;entryX=0.65;entryY=1.033;entryDx=0;entryDy=0;entryPerimeter=0;exitPerimeter=0;" edge="1" parent="1" source="aPo73RIebEHa1gepbamj-27" target="aPo73RIebEHa1gepbamj-37">
          <mxGeometry width="100" height="100" relative="1" as="geometry">
            <mxPoint x="507" y="377" as="sourcePoint" />
            <mxPoint x="301.96000000000004" y="378" as="targetPoint" />
            <Array as="points" />
          </mxGeometry>
        </mxCell>
        <mxCell id="aPo73RIebEHa1gepbamj-71" value="" style="fontSize=12;html=1;endArrow=ERmany;exitX=0.95;exitY=0;exitDx=0;exitDy=0;entryX=0.45;entryY=1.1;entryDx=0;entryDy=0;entryPerimeter=0;exitPerimeter=0;" edge="1" parent="1" source="aPo73RIebEHa1gepbamj-27" target="aPo73RIebEHa1gepbamj-34">
          <mxGeometry width="100" height="100" relative="1" as="geometry">
            <mxPoint x="517" y="387" as="sourcePoint" />
            <mxPoint x="311.96000000000004" y="388" as="targetPoint" />
            <Array as="points" />
          </mxGeometry>
        </mxCell>
        <mxCell id="aPo73RIebEHa1gepbamj-72" value="" style="fontSize=12;html=1;endArrow=ERmany;exitX=0;exitY=0.5;exitDx=0;exitDy=0;entryX=1;entryY=0.5;entryDx=0;entryDy=0;" edge="1" parent="1" source="aPo73RIebEHa1gepbamj-16" target="aPo73RIebEHa1gepbamj-33">
          <mxGeometry width="100" height="100" relative="1" as="geometry">
            <mxPoint x="527" y="397" as="sourcePoint" />
            <mxPoint x="321.96000000000004" y="398" as="targetPoint" />
            <Array as="points" />
          </mxGeometry>
        </mxCell>
      </root>
    </mxGraphModel>
  </diagram>
</mxfile>
